Simulation
nRows=27
nColumns=15
endheader
time  TH_x TH_y TH_z SC_y  SC_z  SC_x  AC_y  AC_z  AC_x  GH_y  GH_z  GH_yy  EL_x  PS_y
1.9499999999999993  0.000000  0.000000  0.000000  -29.90239298569917  6.632609230412214  25.39156410845599  64.15092812443933  10.536390826853419  -2.8366911819460765  48.07115286651078  60.06424198401875  -43.71815247378567  22.365610548489123  0.000000
1.9889999999999992  0.000000  0.000000  0.000000  -29.74903261742173  6.364510380257679  24.85874137439516  63.92186392981485  10.384513525827824  -3.4666769425976067  48.538126165149194  59.16863131300938  -43.260457656165904  22.588049701590766  0.000000
2.027999999999999  0.000000  0.000000  0.000000  -29.548939977507583  6.058222825068264  24.260697190701492  63.661410867214926  10.210012074150889  -4.152321337746558  49.05463259689451  58.15955686458986  -42.86489343398628  22.796525369051906  0.000000
2.0669999999999993  0.000000  0.000000  0.000000  -29.306281772828587  5.720033834758075  23.601377218401694  63.37210836860022  10.013612837125583  -4.875615331261618  49.62180598860791  57.04736823476204  -42.538084167132936  22.977590929409505  0.000000
2.1059999999999994  0.000000  0.000000  0.000000  -29.028099136253896  5.3534116959707365  22.88743980552244  63.0615191036102  9.79634640586438  -5.6185395247513465  50.2180907076321  55.84822173587865  -42.231286343245245  23.1220666688242  0.000000
2.144999999999999  0.000000  0.000000  0.000000  -28.721411919827407  4.959668295123345  22.127338066479176  62.73586882443896  9.563391261604108  -6.36653852269039  50.80624652379039  54.57980869848776  -41.868245422900415  23.223479666731183  0.000000
2.1839999999999993  0.000000  0.000000  0.000000  -28.394891868078517  4.539705347134733  21.327114025565518  62.40002974683972  9.322234559083315  -7.107840393403919  51.34673595808059  53.26035586814732  -41.38568046893777  23.281707018430282  0.000000
2.2229999999999994  0.000000  0.000000  0.000000  -28.061611843901353  4.09503687895726  20.482257132933434  62.05974626976641  9.080932695257438  -7.82788994097003  51.809376838053225  51.90923464609449  -40.75843275127242  23.30794950926514  0.000000
2.261999999999999  0.000000  0.000000  0.000000  -27.741314383797725  3.6306260036263924  19.572992538003955  61.722841134707735  8.846326001777538  -8.501532219851626  52.17331526395628  50.54561957232797  -39.992246963750745  23.324632691625567  0.000000
2.3009999999999993  0.000000  0.000000  0.000000  -27.46108128444951  3.157843941844578  18.565194212686112  61.40274526864686  8.618198787023507  -9.085720998298576  52.40727215614656  49.18581967467434  -39.08718512913672  23.35606638175436  0.000000
2.339999999999999  0.000000  0.000000  0.000000  -27.243172450748986  2.69323296051096  17.420328350128788  61.11198811600984  8.395295042601793  -9.52899366145052  52.45793230389688  47.8343155142188  -38.0056842822264  23.41935857193253  0.000000
2.378999999999999  0.000000  0.000000  0.000000  -27.093811381110285  2.2526900004016914  16.112105053061352  60.85351735081915  8.186173104328926  -9.793486776835671  52.26535335857567  46.477871144150406  -36.676963108153046  23.524988482157493  0.000000
2.4179999999999993  0.000000  0.000000  0.000000  -27.006743506010523  1.8450830146953536  14.635790377022767  60.616804999791015  8.007003937611806  -9.865269566582315  51.786117886177315  45.09337943710924  -35.02660474016117  23.68499900248817  0.000000
2.456999999999999  0.000000  0.000000  0.000000  -26.96957492641193  1.4699210771731526  13.009593561997363  60.37938002359016  7.877917640187946  -9.759815671377655  51.010119012762296  43.661820666087074  -33.01022307078007  23.915871417115966  0.000000
2.495999999999999  0.000000  0.000000  0.000000  -26.971924290876814  1.1227859609342825  11.268512732209883  60.12090308769493  7.812962013440108  -9.51021142156749  49.94648018124295  42.175312687664615  -30.621251736315127  24.232074603199504  0.000000
2.5349999999999993  0.000000  0.000000  0.000000  -27.01033724452257  0.8001408062203431  9.453543796891973  59.83091408015623  7.812630820949271  -9.150995631581093  48.60785471142332  40.63995160040373  -27.885770864752583  24.639534300440182  0.000000
2.573999999999999  0.000000  0.000000  0.000000  -27.08381056653715  0.49964231425359523  7.606067933522025  59.508354990268565  7.869339188887715  -8.712731277601476  47.01100826129635  39.0692636909607  -24.859193770715017  25.130487921716174  0.000000
2.612999999999999  0.000000  0.000000  0.000000  -27.188112944675968  0.22093136931395496  5.76473981332894  59.158823618985224  7.970608521831126  -8.2200814800364  45.1784233872954  37.478185415147344  -21.619382866429838  25.67891477050889  0.000000
2.6519999999999992  0.000000  0.000000  0.000000  -27.314895024604237  -0.03521066802773125  3.9646142131722897  58.79094648478946  8.102421473547953  -7.694138593305277  43.145216224769946  35.878284130292045  -18.262736344629843  26.241936810380814  0.000000
2.690999999999999  0.000000  0.000000  0.000000  -27.45431958577007  -0.2675528939610114  2.237682846334642  58.41165573215363  8.252437318987752  -7.155879048007991  40.963183952035855  34.27438395940642  -14.893091048575055  26.769450396472294  0.000000
2.729999999999999  0.000000  0.000000  0.000000  -27.59977341192521  -0.47337858197171884  0.6139668576157425  58.022512316453586  8.411851452437352  -6.628771607212921  38.70127417982676  32.66399390055989  -11.60833886249976  27.21674911566087  0.000000
2.768999999999999  0.000000  0.000000  0.000000  -27.75060220354255  -0.6481908223769932  -0.8774911584757134  57.61848986865015  8.575904717715721  -6.139459755562924  36.44129898101453  31.038951999801196  -8.489969583423052  27.553446095415918  0.000000
2.807999999999999  0.000000  0.000000  0.000000  -27.911113062117938  -0.7867515947095504  -2.2097569750921826  57.19003876763517  8.741626172178146  -5.716121437453059  34.2705702645295  29.390098618235545  -5.601078735349561  27.764491209531393  0.000000
2.846999999999999  0.000000  0.000000  0.000000  -28.08667894771002  -0.8846624981796105  -3.35901168870868  56.72763641145228  8.905106126904176  -5.385019787472383  32.2722050566175  27.710685380468817  -2.9880796843320754  27.846683544435432  0.000000
2.885999999999999  0.000000  0.000000  0.000000  -28.278110691804926  -0.9399806936509381  -4.305800480839214  56.22642588556692  9.058919257546357  -5.16734845609855  30.51121602513178  25.999539353669267  -0.678570977812523  27.80572171221642  0.000000
2.924999999999999  0.000000  0.000000  0.000000  -28.479045066837898  -0.954355020267334  -5.0362017218989985  55.69006433671873  9.192548131032392  -5.076107165330014  29.019298791187516  24.262112757641354  1.3247244359778285  27.65660186355775  0.000000
2.963999999999999  0.000000  0.000000  0.000000  -28.676787646778074  -0.9345716740336805  -5.545108770482369  55.13294607651165  9.294157863653005  -5.114252184271055  27.779158038481157  22.513024804037496  3.052658587628652  27.425348543557842  0.000000
